<?xml version="1.0" encoding="UTF-8"?>
<svg width="403px" height="84px" viewBox="0 0 403 84" version="1.1" xmlns="http://www.w3.org/2000/svg" xmlns:xlink="http://www.w3.org/1999/xlink">
    <!-- Generator: Sketch 56.3 (81716) - https://sketch.com -->
    <title>oak-and-stone-logo@2x</title>
    <desc>Created with Sketch.</desc>
    <g id="oak-and-stone-logo" stroke="none" stroke-width="1" fill="none" fill-rule="evenodd">
        <path d="M191.42,18.8 C191.42,19.0800014 191.370001,19.3699985 191.27,19.67 C191.17,19.9700015 191.060001,20.12 190.94,20.12 C188.739989,20.4400016 187.210004,20.899997 186.35,21.5 C185.489996,22.100003 184.480006,23.0799932 183.32,24.44 L175.76,33.92 C178.560014,37.0400156 180.529994,38.9299967 181.67,39.59 C182.810006,40.2500033 184.079993,40.58 185.48,40.58 C186.440005,40.58 187.219997,40.4000018 187.82,40.04 C188.420003,39.6799982 188.979997,39.200003 189.5,38.6 C189.54,38.5599998 189.619999,38.5799996 189.74,38.66 C189.86,38.7400004 189.96,38.7999998 190.04,38.84 L190.34,39.14 C190.460001,39.2600006 190.54,39.3599996 190.58,39.44 C190.66,39.6000008 190.759999,39.8499983 190.88,40.19 C191.000001,40.5300017 191.000001,40.7399996 190.88,40.82 C189.839995,42.1400066 188.30001,43.2299957 186.26,44.09 C184.21999,44.9500043 182.100011,45.38 179.9,45.38 C177.459988,45.38 175.340009,45.0500033 173.54,44.39 C171.739991,43.7299967 169.980009,42.3400106 168.26,40.22 C166.579992,41.9800088 164.830009,43.259996 163.01,44.06 C161.189991,44.860004 158.920014,45.26 156.2,45.26 C152.11998,45.26 148.710014,44.2100105 145.97,42.11 C143.229986,40.0099895 141.86,37.5000146 141.86,34.58 C141.86,31.7399858 142.85999,29.3500097 144.86,27.41 C146.86,25.4699903 149.739981,24.100004 153.5,23.3 C152.259994,22.1799944 151.320003,21.020006 150.68,19.82 C150.039997,18.619994 149.72,17.4000062 149.72,16.16 C149.72,13.2799856 150.909988,10.8200102 153.29,8.78 C155.670012,6.7399898 158.85998,5.72 162.86,5.72 C165.980016,5.72 168.279993,6.4899923 169.76,8.03 C171.240007,9.5700077 171.98,11.139992 171.98,12.74 C171.98,14.340008 171.340006,15.8799926 170.06,17.36 C168.779994,18.8400074 167.020011,20.22 164.78,21.5 L173.96,31.82 C175.96001,29.2999874 177.36,27.4900055 178.16,26.39 C178.960004,25.2899945 179.36,24.1000064 179.36,22.82 C179.36,22.0999964 179.110003,21.5300021 178.61,21.11 C178.109998,20.6899979 176.520013,20.3600012 173.84,20.12 C173.719999,20.12 173.610001,19.9600016 173.51,19.64 C173.41,19.3199984 173.36,19.0400012 173.36,18.8 C173.36,18.5599988 173.41,18.2800016 173.51,17.96 C173.610001,17.6399984 173.719999,17.48 173.84,17.48 C175.200007,17.48 176.569993,17.5399994 177.95,17.66 C179.330007,17.7800006 180.939991,17.84 182.78,17.84 C184.580009,17.84 186.059994,17.7800006 187.22,17.66 C188.380006,17.5399994 189.619993,17.48 190.94,17.48 C191.060001,17.48 191.17,17.6299985 191.27,17.93 C191.370001,18.2300015 191.42,18.5199986 191.42,18.8 Z M167.36,12.8 C167.36,11.6399942 167.100003,10.6500041 166.58,9.83 C166.059997,9.0099959 165.140007,8.6 163.82,8.6 C162.499993,8.6 161.520003,9.0599954 160.88,9.98 C160.239997,10.9000046 159.92,12.0399932 159.92,13.4 C159.92,14.4800054 160.189997,15.4699955 160.73,16.37 C161.270003,17.2700045 162.119994,18.3599936 163.28,19.64 C164.840008,18.6 165.909997,17.4500063 166.49,16.19 C167.070003,14.9299937 167.36,13.800005 167.36,12.8 Z M166.52,38.18 L155.06,25.16 C154.059995,25.8800036 153.350002,26.7799946 152.93,27.86 C152.509998,28.9400054 152.3,30.179993 152.3,31.58 C152.3,34.2200132 153.079992,36.339992 154.64,37.94 C156.200008,39.540008 158.119989,40.34 160.4,40.34 C161.680006,40.34 162.819995,40.16 163.82,39.8 C164.820005,39.4399982 165.719996,38.9000036 166.52,38.18 Z M22.8144531,0.669921875 C27.3457258,0.669921875 31.3105299,1.52928828 34.7089844,3.24804688 C38.1074389,4.96680547 40.7441313,7.46189771 42.6191406,10.7333984 C44.49415,14.0048992 45.4316406,17.8964618 45.4316406,22.4082031 C45.4316406,26.8222877 44.4697362,30.7284986 42.5458984,34.1269531 C40.6220607,37.5254076 37.9414234,40.1621 34.5039062,42.0371094 C31.0663891,43.9121187 27.1504126,44.8496094 22.7558594,44.8496094 C18.2245867,44.8496094 14.2597826,43.990243 10.8613281,42.2714844 C7.46287363,40.5527258 4.82618125,38.0576335 2.95117188,34.7861328 C1.0761625,31.5146321 0.138671875,27.6230694 0.138671875,23.1113281 C0.138671875,18.6972436 1.10057632,14.7910326 3.02441406,11.3925781 C4.94825181,7.99412363 7.6240063,5.35743125 11.0517578,3.48242188 C14.4795093,1.6074125 18.4003686,0.669921875 22.8144531,0.669921875 Z M22.5800781,1.75390625 C20.607412,1.75390625 18.8789137,2.647452 17.3945312,4.43457031 C15.9101488,6.22168862 14.7626994,8.7118981 13.9521484,11.9052734 C13.1415975,15.0986488 12.7363281,18.7558388 12.7363281,22.8769531 C12.7363281,27.0175988 13.1953079,30.6747888 14.1132812,33.8486328 C15.0312546,37.0224768 16.2714766,39.4687414 17.8339844,41.1875 C19.3964922,42.9062586 21.115225,43.765625 22.9902344,43.765625 C24.9629005,43.765625 26.6913988,42.8720792 28.1757812,41.0849609 C29.6601637,39.2978426 30.8076131,36.8076332 31.6181641,33.6142578 C32.428715,30.4208825 32.8339844,26.7636925 32.8339844,22.6425781 C32.8339844,18.5019324 32.3750046,14.8447424 31.4570312,11.6708984 C30.5390579,8.49705444 29.2988359,6.05078984 27.7363281,4.33203125 C26.1738203,2.61327266 24.4550875,1.75390625 22.5800781,1.75390625 Z M82.7851562,38.9609375 C83.9765685,41.46095 85.1581973,42.7402341 86.3300781,42.7988281 L86.3300781,44 C84.2792866,43.8828119 81.3398629,43.8242188 77.5117188,43.8242188 C72.6679445,43.8242188 69.1035271,43.8828119 66.8183594,44 L66.8183594,42.7988281 C68.0488343,42.7402341 68.9667938,42.5302752 69.5722656,42.1689453 C70.1777374,41.8076154 70.4804688,41.236332 70.4804688,40.4550781 C70.4804688,39.7324183 70.226565,38.8339897 69.71875,37.7597656 L66.7597656,30.9335938 L55.5097656,30.9335938 C54.181634,34.0586094 53.5175781,36.5390533 53.5175781,38.375 C53.5175781,39.9961019 54.0009717,41.1240203 54.9677734,41.7587891 C55.9345751,42.3935579 57.3066317,42.7402341 59.0839844,42.7988281 L59.0839844,44 C56.0956882,43.8828119 53.4785269,43.8242188 51.2324219,43.8242188 C49.3574125,43.8242188 47.8144592,43.8828119 46.6035156,44 L46.6035156,42.7988281 C47.5410203,42.6425773 48.4296833,42.0419974 49.2695312,40.9970703 C50.1093792,39.9521432 51.0664009,38.2089966 52.140625,35.7675781 L64.4160156,7.52539062 C65.0214874,7.60351602 65.6855433,7.64257812 66.4082031,7.64257812 C67.1699257,7.64257812 67.8339815,7.60351602 68.4003906,7.52539062 L82.7851562,38.9609375 Z M61.1347656,17.9257812 L56.0371094,29.7324219 L66.2617188,29.7324219 L61.1347656,17.9257812 Z M127.638672,39.1367188 C127.716797,39.2539068 127.975584,39.6201141 128.415039,40.2353516 C128.854494,40.850589 129.303709,41.3535137 129.762695,41.7441406 C130.221682,42.1347676 130.734372,42.4863266 131.300781,42.7988281 L131.300781,44 C127.941389,43.8828119 124.33791,43.8242188 120.490234,43.8242188 C117.52147,43.8242188 114.66017,43.8828119 111.90625,44 L111.90625,42.7988281 C113.175788,42.7402341 114.069333,42.6279305 114.586914,42.4619141 C115.104495,42.2958976 115.363281,42.0273456 115.363281,41.65625 C115.363281,41.3242171 115.14844,40.8066441 114.71875,40.1035156 L106.925781,28.7070313 C106.281247,27.8085893 105.705081,27.1201196 105.197266,26.6416016 C104.689451,26.1630835 104.025395,25.8945315 103.205078,25.8359375 L103.205078,37.6425781 C103.205078,39.1464919 103.307616,40.240231 103.512695,40.9238281 C103.717774,41.6074253 104.103513,42.0761706 104.669922,42.3300781 C105.236331,42.5839856 106.164056,42.7402341 107.453125,42.7988281 L107.453125,44 C105.265614,43.8828119 102.033225,43.8242188 97.7558594,43.8242188 C93.1073986,43.8242188 89.6406364,43.8828119 87.3554688,44 L87.3554688,42.7988281 C88.6445377,42.7402341 89.5771456,42.5839856 90.1533203,42.3300781 C90.7294951,42.0761706 91.1201162,41.6074253 91.3251953,40.9238281 C91.5302745,40.240231 91.6328125,39.1464919 91.6328125,37.6425781 L91.6328125,13.8828125 C91.6328125,12.3788987 91.5253917,11.2851597 91.3105469,10.6015625 C91.0957021,9.91796533 90.7001982,9.44922002 90.1240234,9.1953125 C89.5478487,8.94140498 88.6250063,8.78515654 87.3554688,8.7265625 L87.3554688,7.52539062 C89.6406364,7.64257871 93.1073986,7.70117188 97.7558594,7.70117188 C102.033225,7.70117188 105.265614,7.64257871 107.453125,7.52539062 L107.453125,8.7265625 C106.164056,8.78515654 105.236331,8.94140498 104.669922,9.1953125 C104.103513,9.44922002 103.717774,9.91308257 103.512695,10.5869141 C103.307616,11.2607456 103.205078,12.3593674 103.205078,13.8828125 L103.205078,24.5175781 C105.177744,24.3222646 106.935539,23.8242228 108.478516,23.0234375 C110.021492,22.2226522 111.662101,20.9921958 113.400391,19.3320312 L114.777344,18.0136719 C116.671884,16.1972565 117.619141,14.4785237 117.619141,12.8574219 C117.619141,11.6660097 117.130864,10.6845742 116.154297,9.91308594 C115.177729,9.14159771 113.966804,8.72656279 112.521484,8.66796875 L112.521484,7.52539062 C115.861345,7.64257871 119.415997,7.70117188 123.185547,7.70117188 C125.607434,7.70117188 127.628898,7.64257871 129.25,7.52539062 L129.25,8.66796875 C127.863274,9.01953301 126.417976,9.65429229 124.914062,10.5722656 C123.410149,11.490239 121.955085,12.6328057 120.548828,14 L114.542969,19.859375 L127.638672,39.1367188 Z M221.076172,0.669921875 C223.380871,0.669921875 225.246087,0.884763477 226.671875,1.31445312 C228.097663,1.74414277 229.474603,2.33007441 230.802734,3.07226562 C231.369143,3.38476719 231.789061,3.60449155 232.0625,3.73144531 C232.335939,3.85839907 232.599608,3.921875 232.853516,3.921875 C233.224611,3.921875 233.507812,3.71191616 233.703125,3.29199219 C233.898438,2.87206821 234.054687,2.20312959 234.171875,1.28515625 L235.548828,1.28515625 C235.353515,4.15626436 235.255859,9.03902803 235.255859,15.9335938 L233.878906,15.9335938 C233.722655,13.6484261 233.2002,11.4609479 232.311523,9.37109375 C231.422847,7.28123955 230.216804,5.58203779 228.693359,4.2734375 C227.169914,2.96483721 225.412119,2.31054688 223.419922,2.31054688 C221.603507,2.31054688 220.128912,2.79882324 218.996094,3.77539062 C217.863276,4.75195801 217.296875,6.11913184 217.296875,7.87695312 C217.296875,9.22461611 217.594724,10.3964794 218.19043,11.3925781 C218.786136,12.3886769 219.665033,13.3554641 220.827148,14.2929688 C221.989264,15.2304734 223.869128,16.5976473 226.466797,18.3945312 L227.873047,19.390625 C230.080089,20.9336015 231.837884,22.286127 233.146484,23.4482422 C234.455085,24.6103574 235.52441,25.9726484 236.354492,27.5351563 C237.184574,29.0976641 237.599609,30.9042866 237.599609,32.9550781 C237.599609,35.5527474 236.867195,37.7451083 235.402344,39.5322266 C233.937493,41.3193449 231.974622,42.6523394 229.513672,43.53125 C227.052722,44.4101606 224.308609,44.8496094 221.28125,44.8496094 C218.8203,44.8496094 216.784188,44.6494161 215.172852,44.2490234 C213.561515,43.8486308 212.052741,43.306644 210.646484,42.6230469 C209.748042,42.0566378 209.074221,41.7734375 208.625,41.7734375 C208.253904,41.7734375 207.970704,41.9785136 207.775391,42.3886719 C207.580077,42.7988302 207.414063,43.4726516 207.277344,44.4101562 L205.900391,44.4101562 C206.076173,41.363266 206.164062,35.5625428 206.164062,27.0078125 L207.541016,27.0078125 C207.794923,31.75393 208.781241,35.6113133 210.5,38.5800781 C212.218759,41.548843 214.865217,43.0332031 218.439453,43.0332031 C220.666027,43.0332031 222.423822,42.5156302 223.712891,41.4804688 C225.00196,40.4453073 225.646484,39.0097748 225.646484,37.1738281 C225.646484,35.591789 225.290043,34.1709047 224.577148,32.9111328 C223.864254,31.6513609 222.90235,30.4990287 221.691406,29.4541016 C220.480463,28.4091745 218.878916,27.2226629 216.886719,25.8945312 C214.464832,24.2734294 212.545906,22.8671935 211.129883,21.6757812 C209.71386,20.484369 208.541997,19.0927814 207.614258,17.5009766 C206.686519,15.9091717 206.222656,14.0781354 206.222656,12.0078125 C206.222656,9.5078 206.90136,7.40332886 208.258789,5.69433594 C209.616218,3.98534302 211.417958,2.72070723 213.664062,1.90039062 C215.910167,1.08007402 218.380846,0.669921875 221.076172,0.669921875 Z M277.970703,7.52539062 C277.677733,10.748063 277.53125,13.7070178 277.53125,16.4023438 C277.53125,18.8046995 277.589843,20.6406187 277.707031,21.9101562 L276.330078,21.9101562 C275.568356,18.7265466 274.708989,16.1875095 273.751953,14.2929688 C272.794917,12.398428 271.681647,11.0263714 270.412109,10.1767578 C269.142572,9.32714419 267.638681,8.90234375 265.900391,8.90234375 L265.34375,8.90234375 L265.34375,37.0273438 C265.34375,38.6875083 265.499998,39.9033165 265.8125,40.6748047 C266.125002,41.4462929 266.691402,41.9785142 267.511719,42.2714844 C268.332035,42.5644546 269.63085,42.7402341 271.408203,42.7988281 L271.408203,44 C269.220692,43.8828119 265.187529,43.8242188 259.308594,43.8242188 C253.507783,43.8242188 249.640635,43.8828119 247.707031,44 L247.707031,42.7988281 C249.484384,42.7402341 250.783199,42.5644546 251.603516,42.2714844 C252.423832,41.9785142 252.990233,41.4462929 253.302734,40.6748047 C253.615236,39.9033165 253.771484,38.6875083 253.771484,37.0273438 L253.771484,8.90234375 L253.244141,8.90234375 C251.486319,8.90234375 249.972663,9.32714419 248.703125,10.1767578 C247.433587,11.0263714 246.320317,12.398428 245.363281,14.2929688 C244.406245,16.1875095 243.546879,18.7265466 242.785156,21.9101562 L241.408203,21.9101562 C241.525391,20.6406187 241.583984,18.8046995 241.583984,16.4023438 C241.583984,13.7851432 241.447267,10.8261884 241.173828,7.52539062 C244.728533,7.64257871 250.773395,7.70117188 259.308594,7.70117188 C268.058638,7.70117188 274.279278,7.64257871 277.970703,7.52539062 Z M302.990234,6.67578125 C307.2676,6.67578125 311.022445,7.41307856 314.254883,8.88769531 C317.487321,10.3623121 319.987296,12.5058453 321.754883,15.3183594 C323.52247,18.1308734 324.40625,21.4902148 324.40625,25.3964844 C324.40625,29.2246285 323.493173,32.6083837 321.666992,35.5478516 C319.840811,38.4873194 317.301774,40.7724528 314.049805,42.4033203 C310.797835,44.0341878 307.091818,44.8496094 302.931641,44.8496094 C298.654275,44.8496094 294.89943,44.1123121 291.666992,42.6376953 C288.434554,41.1630786 285.934579,39.0195453 284.166992,36.2070312 C282.399405,33.3945172 281.515625,30.0351758 281.515625,26.1289062 C281.515625,22.3007621 282.423819,18.9121241 284.240234,15.9628906 C286.05665,13.0136571 288.595687,10.7285237 291.857422,9.10742188 C295.119157,7.48632002 298.830057,6.67578125 302.990234,6.67578125 Z M302.755859,7.75976562 C300.900381,7.75976562 299.274421,8.52635952 297.87793,10.0595703 C296.481438,11.5927811 295.402348,13.7314316 294.640625,16.4755859 C293.878902,19.2197403 293.498047,22.3593573 293.498047,25.8945312 C293.498047,29.4492365 293.92773,32.579088 294.787109,35.2841797 C295.646489,37.9892713 296.813469,40.0790942 298.288086,41.5537109 C299.762703,43.0283277 301.388663,43.765625 303.166016,43.765625 C305.021494,43.765625 306.647454,42.9990311 308.043945,41.4658203 C309.440437,39.9326095 310.514645,37.793959 311.266602,35.0498047 C312.018558,32.3056503 312.394531,29.1660333 312.394531,25.6308594 C312.394531,22.0761541 311.964848,18.9414198 311.105469,16.2265625 C310.246089,13.5117052 309.083992,11.4218823 307.619141,9.95703125 C306.15429,8.49218018 304.533212,7.75976562 302.755859,7.75976562 Z M366.59375,8.7265625 C365.324212,8.98047002 364.40137,9.34179453 363.825195,9.81054688 C363.249021,10.2792992 362.858399,10.9873 362.65332,11.9345703 C362.448241,12.8818407 362.345703,14.3320215 362.345703,16.2851562 L362.345703,44 C361.642575,43.941406 360.91016,43.9121094 360.148438,43.9121094 C359.425778,43.9121094 358.693363,43.941406 357.951172,44 L333.957031,16.4609375 L333.957031,35.2402344 C333.957031,37.1543064 334.132811,38.589839 334.484375,39.546875 C334.835939,40.503911 335.465816,41.2167945 336.374023,41.6855469 C337.282231,42.1542992 338.69335,42.5253906 340.607422,42.7988281 L340.607422,44 C338.654287,43.8828119 336.212905,43.8242188 333.283203,43.8242188 C331.173818,43.8242188 329.513678,43.8828119 328.302734,44 L328.302734,42.7988281 C329.572272,42.5253906 330.499997,42.159182 331.085938,41.7001953 C331.671878,41.2412086 332.067382,40.5332079 332.272461,39.5761719 C332.47754,38.6191358 332.580078,37.1738378 332.580078,35.2402344 L332.580078,13.8828125 C332.580078,12.3788987 332.472657,11.2851597 332.257812,10.6015625 C332.042968,9.91796533 331.647464,9.44922002 331.071289,9.1953125 C330.495114,8.94140498 329.572272,8.78515654 328.302734,8.7265625 L328.302734,7.52539062 C329.513678,7.64257871 331.173818,7.70117188 333.283203,7.70117188 C336.56447,7.70117188 339.406238,7.64257871 341.808594,7.52539062 L360.96875,29.3515625 L360.96875,16.2851562 C360.96875,14.3515528 360.792971,12.9062548 360.441406,11.9492188 C360.089842,10.9921827 359.459965,10.284182 358.551758,9.82519531 C357.64355,9.36620864 356.222666,9.00000137 354.289062,8.7265625 L354.289062,7.52539062 C356.28126,7.64257871 358.722642,7.70117188 361.613281,7.70117188 C363.742198,7.70117188 365.402338,7.64257871 366.59375,7.52539062 L366.59375,8.7265625 Z M402.335938,35.7089844 C402.335938,37.9160267 402.48242,40.6796709 402.775391,44 C400.177721,43.8828119 395.793,43.8242188 389.621094,43.8242188 C380.831987,43.8242188 374.230491,43.8828119 369.816406,44 L369.816406,42.7988281 C371.105475,42.7402341 372.038083,42.5839856 372.614258,42.3300781 C373.190433,42.0761706 373.581054,41.6074253 373.786133,40.9238281 C373.991212,40.240231 374.09375,39.1464919 374.09375,37.6425781 L374.09375,13.8828125 C374.09375,12.3788987 373.986329,11.2851597 373.771484,10.6015625 C373.55664,9.91796533 373.161136,9.44922002 372.584961,9.1953125 C372.008786,8.94140498 371.085944,8.78515654 369.816406,8.7265625 L369.816406,7.52539062 C374.230491,7.64257871 380.831987,7.70117188 389.621094,7.70117188 C395.226591,7.70117188 399.210926,7.64257871 401.574219,7.52539062 C401.281249,10.5722809 401.134766,13.130849 401.134766,15.2011719 C401.134766,16.8418051 401.203124,18.0820271 401.339844,18.921875 L399.933594,18.921875 C399.132808,15.3476384 397.86329,12.7841875 396.125,11.2314453 C394.38671,9.67870317 392.179701,8.90234375 389.503906,8.90234375 L388.742188,8.90234375 C387.980465,8.90234375 387.384768,8.98046797 386.955078,9.13671875 C386.525388,9.29296953 386.203126,9.59570088 385.988281,10.0449219 C385.773436,10.4941429 385.666016,11.1679643 385.666016,12.0664062 L385.666016,25.0449219 L387.042969,25.0449219 C388.3711,25.0449219 389.508784,24.6982457 390.456055,24.0048828 C391.403325,23.31152 392.150388,22.4521536 392.697266,21.4267578 C393.244143,20.4013621 393.624999,19.3613334 393.839844,18.3066406 L395.216797,18.3066406 C395.080077,19.791023 395.011719,21.3242108 395.011719,22.90625 L395.041016,25.6308594 C395.041016,27.5839941 395.158202,30.025376 395.392578,32.9550781 L394.015625,32.9550781 C393.722655,31.0410061 392.975592,29.4443423 391.774414,28.1650391 C390.573236,26.8857358 388.996104,26.2460938 387.042969,26.2460938 L385.666016,26.2460938 L385.666016,39.4296875 C385.666016,40.3281295 385.773436,41.0068336 385.988281,41.4658203 C386.203126,41.924807 386.525388,42.2324211 386.955078,42.3886719 C387.384768,42.5449227 387.980465,42.6230469 388.742188,42.6230469 L390.119141,42.6230469 C392.912123,42.6230469 395.241202,41.7490322 397.106445,40.0009766 C398.971689,38.2529209 400.314449,35.3867387 401.134766,31.4023438 L402.541016,31.4023438 C402.404296,32.4765679 402.335938,33.9121004 402.335938,35.7089844 Z M101.2,83 L101.2,65.5 L108.725,65.5 C110.875011,65.5 112.533327,66.0833275 113.7,67.25 C114.600004,68.1500045 115.05,69.299993 115.05,70.7 L115.05,70.75 C115.05,72.150007 114.616671,73.283329 113.75,74.15 C112.883329,75.016671 111.73334,75.583332 110.3,75.85 L115.675,83 L113.25,83 L108.175,76.2 L103.175,76.2 L103.175,83 L101.2,83 Z M103.175,74.425 L108.55,74.425 C109.88334,74.425 110.966662,74.1000033 111.8,73.45 C112.633337,72.7999968 113.05,71.9250055 113.05,70.825 L113.05,70.775 C113.05,69.6916612 112.654171,68.8458364 111.8625,68.2375 C111.070829,67.6291636 109.975007,67.325 108.575,67.325 L103.175,67.325 L103.175,74.425 Z M130.275,83 L130.275,65.5 L142.925,65.5 L142.925,67.3 L132.25,67.3 L132.25,73.275 L141.8,73.275 L141.8,75.075 L132.25,75.075 L132.25,81.2 L143.05,81.2 L143.05,83 L130.275,83 Z M158.025,83 L158.025,65.5 L160.025,65.5 L166.4,75.05 L172.775,65.5 L174.775,65.5 L174.775,83 L172.8,83 L172.8,68.825 L166.425,78.2 L166.325,78.2 L159.95,68.85 L159.95,83 L158.025,83 Z M205.275,80.65 C203.591658,82.4166755 201.450013,83.3 198.85,83.3 C196.249987,83.3 194.116675,82.4208421 192.45,80.6625 C190.783325,78.9041579 189.95,76.7833457 189.95,74.3 L189.95,74.25 C189.95,71.7666543 190.791658,69.6375089 192.475,67.8625 C194.158342,66.0874911 196.299987,65.2 198.9,65.2 C201.500013,65.2 203.633325,66.0791579 205.3,67.8375 C206.966675,69.5958421 207.8,71.7166543 207.8,74.2 L207.8,74.25 C207.8,76.7333457 206.958342,78.8666578 205.275,80.65 Z M193.95,79.375 C195.266673,80.775007 196.916657,81.475 198.9,81.475 C200.883343,81.475 202.520827,80.7833403 203.8125,79.4 C205.104173,78.0166598 205.75,76.3166767 205.75,74.3 L205.75,74.25 C205.75,72.2333232 205.09584,70.525 203.7875,69.125 C202.47916,67.724993 200.833343,67.025 198.85,67.025 C196.866657,67.025 195.229173,67.7166597 193.9375,69.1 C192.645827,70.4833402 192,72.1833233 192,74.2 L192,74.25 C192,76.2666768 192.649993,77.974993 193.95,79.375 Z M222.975,83 L222.975,65.5 L229.05,65.5 C231.76668,65.5 233.995825,66.3291584 235.7375,67.9875 C237.479175,69.6458416 238.35,71.7166543 238.35,74.2 L238.35,74.25 C238.35,76.7500125 237.479175,78.833325 235.7375,80.5 C233.995825,82.166675 231.76668,83 229.05,83 L222.975,83 Z M224.95,81.175 L229.05,81.175 C231.216677,81.175 232.96666,80.5250065 234.3,79.225 C235.63334,77.9249935 236.3,76.2833433 236.3,74.3 L236.3,74.25 C236.3,72.2666567 235.63334,70.6166732 234.3,69.3 C232.96666,67.9833268 231.216677,67.325 229.05,67.325 L224.95,67.325 L224.95,81.175 Z M253.525,83 L253.525,65.5 L266.175,65.5 L266.175,67.3 L255.5,67.3 L255.5,73.275 L265.05,73.275 L265.05,75.075 L255.5,75.075 L255.5,81.2 L266.3,81.2 L266.3,83 L253.525,83 Z M281.275,83 L281.275,65.5 L283.25,65.5 L283.25,81.175 L293.1,81.175 L293.1,83 L281.275,83 Z" id="Combined-Shape" fill="#4D5348" fill-rule="nonzero"></path>
    </g>
</svg>